<svg width="704" height="192" viewBox="0 0 704 192" fill="none" xmlns="http://www.w3.org/2000/svg" role="img" aria-labelledby="title desc">
  <title id="title">FanPass</title>
  <desc id="desc">FanPass ticket logo and wordmark</desc>
  <g transform="translate(18 36) rotate(-10 78 60)">
    <rect x="0" y="0" width="156" height="120" rx="18" fill="#2563EB"/>
    <circle cx="0" cy="60" r="19" fill="white"/>
    <circle cx="156" cy="60" r="19" fill="white"/>
    <path d="M57 31H114C119 31 122 36.7 119 40.8L113.2 48.8C111.6 51 109.2 52.5 106.5 53L75.3 58.7L72.6 75.2L102.9 69.7C108.2 68.7 112.7 73.7 111.1 78.8L108.3 88C107.3 91.1 104.8 93.4 101.6 94L66.5 100.4C60.3 101.5 55 96.1 56.1 89.9L65.3 40.9C66.3 35.2 71.2 31 57 31Z" fill="white"/>
  </g>
  <text x="232" y="124" fill="#0F172A" font-family="Inter, Arial, Helvetica, sans-serif" font-size="86" font-weight="800" letter-spacing="0">FanPass</text>
</svg>
